HIERARCHY
ROOT Hips
{
	OFFSET 0.00000 0.00000 0.00000
	CHANNELS 6 Xposition Yposition Zposition Zrotation Yrotation Xrotation 
	JOINT LHipJoint
	{
		OFFSET 0 0 0
		CHANNELS 3 Zrotation Yrotation Xrotation
		JOINT LeftUpLeg
		{
			OFFSET 1.78158 -1.79992 1.25746
			CHANNELS 3 Zrotation Yrotation Xrotation
			JOINT LeftLeg
			{
				OFFSET 2.48433 -6.82566 0.00000
				CHANNELS 3 Zrotation Yrotation Xrotation
				JOINT LeftFoot
				{
					OFFSET 2.69722 -7.41057 0.00000
					CHANNELS 3 Zrotation Yrotation Xrotation
					JOINT LeftToeBase
					{
						OFFSET 0.10733 -0.29489 1.75071
						CHANNELS 3 Zrotation Yrotation Xrotation
						End Site
						{
							OFFSET 0.00000 -0.00000 0.90224
						}
					}
				}
			}
		}
	}
	JOINT RHipJoint
	{
		OFFSET 0 0 0
		CHANNELS 3 Zrotation Yrotation Xrotation
		JOINT RightUpLeg
		{
			OFFSET -1.91234 -1.79993 1.25746
			CHANNELS 3 Zrotation Yrotation Xrotation
			JOINT RightLeg
			{
				OFFSET -2.33122 -6.40498 0.00000
				CHANNELS 3 Zrotation Yrotation Xrotation
				JOINT RightFoot
				{
					OFFSET -2.75667 -7.57390 0.00000
					CHANNELS 3 Zrotation Yrotation Xrotation
					JOINT RightToeBase
					{
						OFFSET -0.15946 -0.43811 1.78925
						CHANNELS 3 Zrotation Yrotation Xrotation
						End Site
						{
							OFFSET -0.00000 -0.00000 0.93158
						}
					}
				}
			}
		}
	}
	JOINT LowerBack
	{
		OFFSET 0 0 0
		CHANNELS 3 Zrotation Yrotation Xrotation
		JOINT Spine
		{
			OFFSET -0.02267 2.03993 -0.26238
			CHANNELS 3 Zrotation Yrotation Xrotation
			JOINT Spine1
			{
				OFFSET 0.02263 2.06220 -0.00892
				CHANNELS 3 Zrotation Yrotation Xrotation
				JOINT Neck
				{
					OFFSET 0 0 0
					CHANNELS 3 Zrotation Yrotation Xrotation
					JOINT Neck1
					{
						OFFSET -0.06177 1.95978 0.28606
						CHANNELS 3 Zrotation Yrotation Xrotation
						JOINT Head
						{
							OFFSET 0.08482 1.96576 -0.43252
							CHANNELS 3 Zrotation Yrotation Xrotation
							End Site
							{
								OFFSET 0.02787 2.02739 -0.18071
							}
						}
					}
				}
				JOINT LeftShoulder
				{
					OFFSET 0 0 0
					CHANNELS 3 Zrotation Yrotation Xrotation
					JOINT LeftArm
					{
						OFFSET 3.80978 1.64906 0.29973
						CHANNELS 3 Zrotation Yrotation Xrotation
						JOINT LeftForeArm
						{
							OFFSET 4.93042 -0.00000 0.00000
							CHANNELS 3 Zrotation Yrotation Xrotation
							JOINT LeftHand
							{
								OFFSET 3.68177 -0.00000 0.00000
								CHANNELS 3 Zrotation Yrotation Xrotation
								JOINT LeftFingerBase
								{
									OFFSET 0 0 0
									CHANNELS 3 Zrotation Yrotation Xrotation
									JOINT LeftHandIndex1
									{
										OFFSET 0.72148 -0.00000 0.00000
										CHANNELS 3 Zrotation Yrotation Xrotation
										End Site
										{
											OFFSET 0.58168 -0.00000 0.00000
										}
									}
								}
								JOINT LThumb
								{
									OFFSET 0 0 0
									CHANNELS 3 Zrotation Yrotation Xrotation
									End Site
									{
										OFFSET 0.59056 -0.00000 0.59056
									}
								}
							}
						}
					}
				}
				JOINT RightShoulder
				{
					OFFSET 0 0 0
					CHANNELS 3 Zrotation Yrotation Xrotation
					JOINT RightArm
					{
						OFFSET -3.49270 1.85636 0.09297
						CHANNELS 3 Zrotation Yrotation Xrotation
						JOINT RightForeArm
						{
							OFFSET -5.07905 -0.00000 -0.00000
							CHANNELS 3 Zrotation Yrotation Xrotation
							JOINT RightHand
							{
								OFFSET -3.54394 -0.00000 0.00000
								CHANNELS 3 Zrotation Yrotation Xrotation
								JOINT RightFingerBase
								{
									OFFSET 0 0 0
									CHANNELS 3 Zrotation Yrotation Xrotation
									JOINT RightHandIndex1
									{
										OFFSET -0.68116 -0.00000 0.00000
										CHANNELS 3 Zrotation Yrotation Xrotation
										End Site
										{
											OFFSET -0.54917 -0.00000 0.00000
										}
									}
								}
								JOINT RThumb
								{
									OFFSET 0 0 0
									CHANNELS 3 Zrotation Yrotation Xrotation
									End Site
									{
										OFFSET -0.55755 -0.00000 0.55755
									}
								}
							}
						}
					}
				}
			}
		}
	}
}
MOTION
Frames: 15
Frame Time: .0083333
-11.464 17.9809 -16.699 0 0 0 0 0 0 -21 0 0 0 0 0 0 0 0 0 0 0 0 0 0 21 0 0 0 0 0 0 0 0 0 0 0 0 0 0 0 0 0 0 0 0 0 0 -16 0 0 21 0 0 11 0 0 0 -8 0 0 0 0 0 0 0 0 0 0 0 0 0 0 0 0 0 0 0 0 8 0 0 0 0 0 0 0 0 0 0 0 0 0 0 0 0 0
-11.4640 17.9809 -16.6990 172.3160 86.3862 174.2750 0.0000 0.0000 0.0000 -15.3642 -15.7466 -7.8105 1.5962 7.9689 22.6197 0.8051 3.9164 -18.8094 3.0563 -10.7857 -31.5604 0.0000 0.0000 0.0000 10.8731 -8.7510 1.9317 0.0000 0.0000 -0.0000 -0.0165 -5.4947 -8.3211 -0.6521 5.1652 -14.3803 0.4072 0.4689 8.8960 0.7396 0.7191 -0.7010 0.4438 0.3567 -5.7319 -6.1012 -4.5732 -20.2797 1.3326 -4.0686 34.8989 0.9344 -2.0023 16.0078 0.0000 0.0000 0.0000 -90.1330 1.1843 25.5641 20.2390 -30.9292 -5.6537 -0.0000 0.0000 -14.9734 36.4528 5.1833 3.8180 -7.1250 0.0000 -0.0000 8.2221 36.3086 -1.7719 0.0000 0.0000 0.0000 84.4273 -4.5433 14.0701 -17.3640 27.3351 -4.2531 0.0000 0.0000 22.5674 -19.1481 -12.8820 4.4265 7.1250 -0.0000 -0.0000 7.4468 -43.4644 0.2839
-11.4160 17.9786 -16.6547 172.1810 86.1203 174.0810 0.0000 0.0000 0.0000 -15.3519 -16.0144 -7.4415 1.5789 7.9276 22.4944 0.8117 4.0296 -18.9427 3.0642 -10.7982 -31.6024 0.0000 0.0000 0.0000 10.9446 -9.0867 2.1234 0.0000 0.0000 -0.0000 -0.0266 -5.3815 -8.4490 -0.5943 4.9352 -13.7238 0.5371 0.4491 8.6597 0.8199 0.7094 -0.8124 0.4572 0.3491 -5.7146 -6.2581 -4.5388 -20.2927 1.4273 -4.0049 34.6986 1.0128 -1.9861 15.9171 -0.0000 0.0000 0.0000 -91.1852 0.7412 23.1773 18.5014 -28.7944 -4.7883 -0.0000 0.0000 -13.1703 36.2147 4.7755 3.4886 -7.1250 0.0000 -0.0000 7.9917 35.7952 -1.8224 -0.0000 0.0000 0.0000 84.1064 -4.6752 14.5890 -17.0603 26.9372 -4.1146 0.0000 0.0000 22.6865 -18.8800 -12.8028 4.3338 7.1250 -0.0000 -0.0000 7.6718 -43.3529 0.3138
-11.3697 17.9799 -16.6081 172.3420 85.8520 174.2600 0.0000 0.0000 0.0000 -15.2886 -16.3151 -7.1352 1.5548 7.8698 22.3192 0.8106 4.2151 -19.0435 3.1025 -10.8591 -31.8062 0.0000 0.0000 0.0000 11.0782 -9.4187 2.2534 0.0000 0.0000 -0.0000 -0.0370 -5.3001 -8.6255 -0.5025 4.5445 -12.6138 0.5760 0.4337 8.3825 0.9290 0.6971 -0.9610 0.5524 0.3435 -5.7144 -6.3577 -4.5047 -20.3000 1.5252 -3.9684 34.4689 1.0769 -1.9734 15.8100 0.0000 -0.0000 0.0000 -92.2488 0.3419 20.3747 16.7908 -26.5811 -3.9933 -0.0000 0.0000 -11.1224 36.1124 4.3955 3.2002 -7.1250 0.0000 -0.0000 7.8782 35.3250 -1.8871 0.0000 -0.0000 0.0000 83.7125 -4.8705 15.2077 -16.7295 26.4998 -3.9659 0.0000 0.0000 22.6502 -18.6618 -12.7065 4.2486 7.1250 -0.0000 -0.0000 7.8481 -43.2294 0.3452
-11.3244 17.9830 -16.5600 172.6750 85.5585 174.6560 0.0000 0.0000 0.0000 -15.1961 -16.6713 -6.8785 1.5322 7.8149 22.1533 0.8069 4.4397 -19.1444 3.1674 -10.9612 -32.1491 0.0000 0.0000 0.0000 11.2478 -9.7759 2.3526 0.0000 0.0000 -0.0000 -0.0501 -5.2368 -8.8848 -0.4176 4.1481 -11.4937 0.5497 0.4016 8.0885 1.0447 0.6566 -1.1377 0.6948 0.3263 -5.7348 -6.3838 -4.4615 -20.3093 1.6233 -3.9486 34.2242 1.1246 -1.9581 15.6948 0.0000 0.0000 0.0000 -93.2033 0.0466 17.3815 15.1877 -24.4069 -3.3031 -0.0000 0.0000 -9.0915 36.1893 4.1325 3.0180 -7.1250 0.0000 -0.0000 7.9227 35.0068 -1.9599 0.0000 0.0000 0.0000 83.2582 -5.1313 16.0317 -16.3846 26.0393 -3.8132 0.0000 0.0000 22.3329 -18.5901 -12.7088 4.2319 7.1250 -0.0000 -0.0000 7.9128 -43.2241 0.3491
-11.2793 17.9859 -16.5127 173.1220 85.2276 175.1880 0.0000 0.0000 0.0000 -15.0991 -17.1182 -6.6165 1.5098 7.7602 21.9882 0.8033 4.7020 -19.2735 3.2380 -11.0707 -32.5187 0.0000 0.0000 0.0000 11.4261 -10.1720 2.4372 0.0000 0.0000 -0.0000 -0.0677 -5.1526 -9.2196 -0.3582 3.8447 -10.6402 0.5008 0.3377 7.7909 1.1512 0.5715 -1.3295 0.8456 0.2881 -5.7681 -6.3463 -4.4047 -20.3312 1.7235 -3.9344 33.9753 1.1606 -1.9368 15.5791 0.0000 -0.0000 0.0000 -93.9701 -0.1011 14.4561 13.7441 -22.3677 -2.7300 -0.0000 0.0000 -7.3319 36.4260 4.0398 2.9761 -7.1250 0.0000 -0.0000 8.1121 34.9037 -2.0280 0.0000 -0.0000 0.0000 82.7687 -5.4289 17.0430 -16.0348 25.5678 -3.6610 0.0000 0.0000 21.7212 -18.7191 -12.8568 4.3119 7.1250 -0.0000 -0.0000 7.8275 -43.3916 0.3127
-11.2341 17.9873 -16.4691 173.6360 84.8728 175.7870 0.0000 0.0000 0.0000 -15.0195 -17.6947 -6.3107 1.4907 7.7131 21.8461 0.8053 5.0086 -19.4909 3.2853 -11.1432 -32.7642 0.0000 0.0000 0.0000 11.5924 -10.5919 2.5166 0.0000 0.0000 0.0000 -0.0899 -5.0157 -9.5861 -0.3225 3.6504 -10.0951 0.4681 0.2445 7.4987 1.2425 0.4486 -1.5203 0.9757 0.2307 -5.8020 -6.2736 -4.3382 -20.3722 1.8297 -3.9211 33.7223 1.1922 -1.9108 15.4656 -0.0000 0.0000 0.0000 -94.5295 -0.0867 11.7980 12.4825 -20.5243 -2.2686 -0.0000 0.0000 -5.9703 36.7420 4.1064 3.0600 -7.1250 0.0000 -0.0000 8.3800 34.9999 -2.0764 -0.0000 0.0000 0.0000 82.2868 -5.7143 18.0630 -15.6882 25.0961 -3.5127 0.0000 0.0000 20.9484 -19.0169 -13.1075 4.4692 7.1250 -0.0000 -0.0000 7.6109 -43.6845 0.2486
-11.1891 17.9869 -16.4311 174.1620 84.5286 176.3850 0.0000 0.0000 0.0000 -14.9734 -18.4108 -5.9379 1.4765 7.6780 21.7402 0.8166 5.3750 -19.8454 3.2876 -11.1467 -32.7762 0.0000 0.0000 0.0000 11.7360 -10.9987 2.5964 0.0000 0.0000 -0.0000 -0.1146 -4.8220 -9.9286 -0.2984 3.5124 -9.7088 0.4709 0.1413 7.2196 1.3202 0.3155 -1.6962 1.0722 0.1671 -5.8266 -6.2000 -4.2728 -20.4288 1.9468 -3.9139 33.4526 1.2263 -1.8864 15.3491 0.0000 -0.0000 0.0000 -94.9106 0.0742 9.4752 11.4040 -18.9048 -1.9048 -0.0000 0.0000 -4.9364 37.0243 4.2640 3.2096 -7.1250 0.0000 -0.0000 8.6282 35.2077 -2.0949 0.0000 -0.0000 0.0000 81.8733 -5.9336 18.7805 -15.3510 24.6327 -3.3709 0.0000 0.0000 20.2811 -19.3620 -13.3582 4.6416 7.1250 -0.0000 -0.0000 7.3507 -43.9841 0.1854
-11.1454 17.9853 -16.3991 174.6410 84.2362 176.9190 0.0000 0.0000 0.0000 -14.9657 -19.2277 -5.5015 1.4671 7.6546 21.6699 0.8381 5.8046 -20.3459 3.2404 -11.0744 -32.5311 0.0000 0.0000 0.0000 11.8554 -11.3493 2.6799 0.0000 0.0000 -0.0000 -0.1385 -4.5953 -10.2090 -0.2708 3.3476 -9.2480 0.5025 0.0549 6.9625 1.3901 0.2069 -1.8491 1.1406 0.1146 -5.8393 -6.1530 -4.2218 -20.4884 2.0806 -3.9253 33.1473 1.2674 -1.8717 15.2200 -0.0000 -0.0000 0.0000 -95.1639 0.3459 7.4120 10.4977 -17.5143 -1.6215 -0.0000 0.0000 -3.9902 37.1680 4.4205 3.3444 -7.1250 0.0000 -0.0000 8.7617 35.4084 -2.0847 -0.0000 -0.0000 0.0000 81.5950 -6.0464 18.8494 -15.0277 24.1847 -3.2373 0.0000 0.0000 20.0423 -19.5835 -13.5085 4.7505 7.1250 -0.0000 -0.0000 7.1810 -44.1661 0.1486
-11.1041 17.9832 -16.3718 175.0380 84.0268 177.3600 0.0000 0.0000 0.0000 -14.9859 -20.0598 -5.0362 1.4609 7.6389 21.6226 0.8671 6.2733 -20.9476 3.1602 -10.9500 -32.1113 0.0000 0.0000 0.0000 11.9569 -11.6108 2.7659 0.0000 -0.0000 0.0000 -0.1594 -4.3689 -10.4228 -0.2294 3.0831 -8.5103 0.5366 0.0058 6.7370 1.4577 0.1486 -1.9786 1.1989 0.0868 -5.8460 -6.1442 -4.1942 -20.5349 2.2346 -3.9659 32.7932 1.3171 -1.8723 15.0699 0.0000 0.0000 0.0000 -95.3325 0.6909 5.4677 9.7499 -16.3474 -1.4037 -0.0000 0.0000 -2.8599 37.1151 4.5046 3.4012 -7.1250 0.0000 -0.0000 8.7247 35.5097 -2.0540 0.0000 0.0000 0.0000 81.4996 -6.0400 18.0358 -14.7290 23.7672 -3.1159 0.0000 0.0000 20.4779 -19.5351 -13.5170 4.7407 7.1250 -0.0000 -0.0000 7.2267 -44.1693 0.1490
-11.0662 17.9814 -16.3466 175.3590 83.9110 177.7240 0.0000 0.0000 0.0000 -15.0068 -20.8004 -4.5983 1.4553 7.6251 21.5810 0.8984 6.7313 -21.5638 3.0766 -10.8180 -31.6685 0.0000 0.0000 0.0000 12.0521 -11.7714 2.8479 0.0000 -0.0000 0.0000 -0.1773 -4.1660 -10.5943 -0.1740 2.6874 -7.4095 0.5428 -0.0006 6.5494 1.5271 0.1452 -2.0907 1.2681 0.0871 -5.8571 -6.1681 -4.1900 -20.5569 2.4067 -4.0367 32.3924 1.3733 -1.8880 14.8976 -0.0000 -0.0000 0.0000 -95.4347 1.0864 3.5652 9.1503 -15.3996 -1.2397 -0.0000 0.0000 -1.4175 36.8754 4.4981 3.3669 -7.1250 0.0000 -0.0000 8.5237 35.4893 -2.0101 -0.0000 -0.0000 0.0000 81.5908 -5.9353 16.3513 -14.4770 23.4125 -3.0151 0.0000 0.0000 21.6220 -19.1686 -13.4225 4.6134 7.1250 -0.0000 -0.0000 7.5393 -44.0291 0.1817
-11.0325 17.9804 -16.3214 175.6610 83.8771 178.0760 0.0000 0.0000 0.0000 -14.9934 -21.3615 -4.2446 1.4487 7.6084 21.5307 0.9262 7.1218 -22.0986 3.0197 -10.7269 -31.3642 0.0000 0.0000 0.0000 12.1551 -11.8421 2.9148 0.0000 0.0000 -0.0000 -0.1934 -3.9899 -10.7552 -0.1144 2.1811 -6.0064 0.5050 0.0240 6.3992 1.5992 0.1799 -2.1939 1.3606 0.1080 -5.8808 -6.2060 -4.1995 -20.5545 2.5846 -4.1242 31.9669 1.4306 -1.9123 14.7125 0.0000 -0.0000 0.0000 -95.4652 1.5303 1.7897 8.6945 -14.6723 -1.1215 -0.0000 -0.0000 0.2083 36.5182 4.4425 3.2826 -7.1250 0.0000 -0.0000 8.2206 35.4028 -1.9548 0.0000 -0.0000 0.0000 81.8232 -5.7822 14.0925 -14.2994 23.1611 -2.9448 0.0000 0.0000 23.2362 -18.5722 -13.3204 4.4266 7.1250 -0.0000 -0.0000 8.0568 -43.8558 0.2291
-11.0026 17.9801 -16.2953 176.0360 83.8985 178.5200 0.0000 0.0000 0.0000 -14.9184 -21.7134 -4.0054 1.4400 7.5866 21.4654 0.9465 7.4094 -22.4909 3.0064 -10.7053 -31.2924 0.0000 0.0000 0.0000 12.2784 -11.8478 2.9560 0.0000 -0.0000 0.0000 -0.2093 -3.8312 -10.9223 -0.0639 1.6314 -4.4880 0.4323 0.0585 6.2775 1.6716 0.2254 -2.2946 1.4721 0.1357 -5.9189 -6.2353 -4.2083 -20.5400 2.7483 -4.2065 31.5538 1.4815 -1.9353 14.5318 0.0000 0.0000 0.0000 -95.4078 2.0339 0.3797 8.3786 -14.1647 -1.0428 -0.0000 -0.0000 1.6674 36.1399 4.4160 3.2184 -7.1250 0.0000 -0.0000 7.9027 35.3515 -1.8879 0.0000 0.0000 0.0000 82.1221 -5.6422 11.7420 -14.2095 23.0334 -2.9096 0.0000 0.0000 24.8862 -17.9472 -13.3064 4.2634 7.1250 -0.0000 -0.0000 8.6173 -43.7718 0.2633
-10.9759 17.9799 -16.2690 176.5750 83.9463 179.1430 0.0000 0.0000 0.0000 -14.7797 -21.9023 -3.8666 1.4298 7.5608 21.3877 0.9590 7.6039 -22.7445 3.0359 -10.7529 -31.4511 0.0000 0.0000 0.0000 12.4293 -11.8169 2.9658 0.0000 0.0000 -0.0000 -0.2246 -3.6850 -11.0881 -0.0309 1.1351 -3.1207 0.3562 0.0836 6.1716 1.7387 0.2581 -2.3946 1.5815 0.1572 -5.9652 -6.2401 -4.2050 -20.5312 2.8770 -4.2629 31.1926 1.5190 -1.9485 14.3745 -0.0000 0.0000 0.0000 -95.2512 2.6052 -0.3996 8.1919 -13.8634 -0.9976 -0.0000 -0.0000 2.5641 35.8257 4.4907 3.2351 -7.1250 0.0000 -0.0000 7.6455 35.4271 -1.8114 -0.0000 0.0000 0.0000 82.4145 -5.5647 9.7627 -14.1931 23.0100 -2.9031 0.0000 0.0000 26.1348 -17.5224 -13.4172 4.1901 7.1250 -0.0000 -0.0000 9.0244 -43.8387 0.2609
-10.9514 17.9796 -16.2444 177.3030 84.0008 179.9650 0.0000 0.0000 0.0000 -14.6049 -22.0382 -3.7709 1.4189 7.5333 21.3051 0.9666 7.7642 -22.9307 3.0897 -10.8389 -31.7386 0.0000 0.0000 0.0000 12.6051 -11.7700 2.9480 0.0000 -0.0000 0.0000 -0.2374 -3.5655 -11.2266 -0.0152 0.7954 -2.1859 0.3144 0.0912 6.0702 1.7934 0.2697 -2.4909 1.6611 0.1669 -6.0095 -6.2188 -4.1863 -20.5433 2.9591 -4.2849 30.9103 1.5401 -1.9492 14.2541 0.0000 0.0000 0.0000 -95.0006 3.2361 -0.4147 8.1153 -13.7396 -0.9793 -0.0000 -0.0000 2.6634 35.6226 4.6934 3.3554 -7.1250 0.0000 -0.0000 7.4892 35.6637 -1.7304 0.0000 0.0000 0.0000 82.6551 -5.5690 8.4029 -14.2141 23.0400 -2.9114 0.0000 0.0000 26.7429 -17.4431 -13.6035 4.2266 7.1250 -0.0000 -0.0000 9.1382 -44.0210 0.2227
